<svg xmlns="http://www.w3.org/2000/svg" xmlns:xlink="http://www.w3.org/1999/xlink" width="1920" zoomAndPan="magnify" viewBox="0 0 1440 382.499989" height="510" preserveAspectRatio="xMidYMid meet" version="1.0"><defs><g/><clipPath id="cdc4a6b17c"><path d="M 0.941406 0 L 1439.058594 0 L 1439.058594 382 L 0.941406 382 Z M 0.941406 0 " clip-rule="nonzero"/></clipPath><clipPath id="9db142549a"><rect x="0" width="175" y="0" height="228"/></clipPath><clipPath id="29deee89c0"><rect x="0" width="1440" y="0" height="382"/></clipPath><clipPath id="81e8c97f09"><path d="M 600.070312 354.78125 L 1427.40625 354.78125 L 1427.40625 366.769531 L 600.070312 366.769531 Z M 600.070312 354.78125 " clip-rule="nonzero"/></clipPath><clipPath id="93c6d8d485"><path d="M 0.0703125 0.78125 L 827.40625 0.78125 L 827.40625 12.769531 L 0.0703125 12.769531 Z M 0.0703125 0.78125 " clip-rule="nonzero"/></clipPath><clipPath id="2b3c2f5fb3"><rect x="0" width="828" y="0" height="13"/></clipPath></defs><g clip-path="url(#cdc4a6b17c)"><g transform="matrix(1, 0, 0, 1, 0.000000000000000111, 0)"><g clip-path="url(#29deee89c0)"><g fill="#86f100" fill-opacity="1"><g transform="translate(0.939969, 344.218105)"><g><path d="M 184.25 -22.984375 C 184.519531 -23.253906 183.578125 -25.132812 181.421875 -28.625 C 179.273438 -31.851562 177.191406 -34.203125 175.171875 -35.671875 C 173.160156 -37.148438 169.195312 -38.5625 163.28125 -39.90625 C 161.132812 -40.175781 158.3125 -40.582031 154.8125 -41.125 L 179.015625 -50.796875 L 179.015625 -166.109375 L 149.578125 -143.125 L 149.578125 -41.125 C 149.578125 -39.238281 147.425781 -36.28125 143.125 -32.25 C 138.820312 -28.488281 136.132812 -26.742188 135.0625 -27.015625 C 129.144531 -28.359375 122.425781 -34.132812 114.90625 -44.34375 C 111.945312 -48.644531 109.390625 -53.078125 107.234375 -57.640625 C 105.085938 -62.210938 103.476562 -67.191406 102.40625 -72.578125 C 102.132812 -73.109375 102 -73.644531 102 -74.1875 C 102 -74.71875 101.863281 -75.253906 101.59375 -75.796875 L 101.59375 -80.640625 C 101.59375 -86.546875 103.207031 -92.992188 106.4375 -99.984375 C 109.925781 -106.703125 116.378906 -117.585938 125.796875 -132.640625 C 126.328125 -134.796875 126.59375 -136.273438 126.59375 -137.078125 C 126.59375 -141.648438 124.039062 -146.890625 118.9375 -152.796875 C 114.363281 -157.640625 111.539062 -160.0625 110.46875 -160.0625 L 27.8125 -160.0625 L 8.875 -134.25 C 11.019531 -133.175781 12.765625 -132.375 14.109375 -131.84375 C 18.140625 -130.757812 20.960938 -129.414062 22.578125 -127.8125 C 26.066406 -124.3125 27.8125 -120.144531 27.8125 -115.3125 L 27.8125 -29.4375 C 27.8125 -23.25 29.15625 -18.410156 31.84375 -14.921875 C 32.65625 -13.835938 33.929688 -12.554688 35.671875 -11.078125 C 37.421875 -9.609375 39.367188 -8.203125 41.515625 -6.859375 C 43.671875 -5.515625 45.820312 -4.234375 47.96875 -3.015625 C 50.125 -1.804688 52.007812 -0.800781 53.625 0 C 56.039062 0.269531 57.382812 0.269531 57.65625 0 L 72.96875 -23.390625 C 72.164062 -23.921875 71.425781 -24.253906 70.75 -24.390625 C 70.082031 -24.523438 68.539062 -24.863281 66.125 -25.40625 C 63.164062 -26.476562 61.148438 -27.6875 60.078125 -29.03125 C 58.460938 -30.90625 57.65625 -32.921875 57.65625 -35.078125 L 57.65625 -121.359375 L 46.765625 -131.4375 L 96.359375 -131.4375 C 96.898438 -130.363281 97.4375 -129.488281 97.96875 -128.8125 C 98.507812 -128.144531 99.046875 -127.539062 99.578125 -127 C 101.460938 -123.507812 102.40625 -119.613281 102.40625 -115.3125 C 102.40625 -112.082031 101.867188 -108.988281 100.796875 -106.03125 C 98.640625 -102.8125 96.617188 -99.585938 94.734375 -96.359375 C 92.859375 -93.128906 90.976562 -89.769531 89.09375 -86.28125 C 83.988281 -77.945312 81.4375 -67.195312 81.4375 -54.03125 C 81.4375 -44.613281 84.796875 -35.335938 91.515625 -26.203125 C 96.085938 -19.753906 102.132812 -13.4375 109.65625 -7.25 C 115.570312 -2.414062 118.800781 0 119.34375 0 C 120.6875 -1.882812 121.960938 -3.765625 123.171875 -5.640625 C 124.378906 -7.523438 125.65625 -9.40625 127 -11.28125 C 132.101562 -19.351562 136.269531 -23.390625 139.5 -23.390625 C 145.675781 -23.390625 150.914062 -20.832031 155.21875 -15.71875 C 158.71875 -10.882812 161.539062 -5.644531 163.6875 0 Z M 184.25 -22.984375 "/></g></g></g><g fill="#86f100" fill-opacity="1"><g transform="translate(192.04219, 344.218105)"><g><path d="M 123.78125 -23.78125 L 123.78125 -160.0625 L 35.078125 -160.0625 L 16.125 -134.25 L 20.96875 -131.84375 C 24.726562 -130.757812 27.414062 -129.414062 29.03125 -127.8125 C 33.0625 -124.582031 35.078125 -120.414062 35.078125 -115.3125 L 35.078125 -23.390625 C 35.078125 -22.578125 34.671875 -22.171875 33.859375 -22.171875 C 33.054688 -22.171875 31.847656 -22.578125 30.234375 -23.390625 C 29.429688 -23.648438 28.222656 -24.320312 26.609375 -25.40625 C 24.191406 -26.207031 22.445312 -28.625 21.375 -32.65625 C 21.101562 -33.726562 20.695312 -35.609375 20.15625 -38.296875 L 0 -19.75 L 3.625 -13.703125 C 6.851562 -9.671875 9.8125 -6.71875 12.5 -4.84375 C 14.644531 -3.5 17.460938 -2.285156 20.953125 -1.203125 C 24.453125 -0.128906 27.410156 0.40625 29.828125 0.40625 C 31.441406 0.40625 32.382812 0.269531 32.65625 0 L 64.90625 -29.828125 L 64.90625 -121.359375 L 53.625 -131.4375 L 94.34375 -131.4375 L 94.34375 0 Z M 123.78125 -23.78125 "/></g></g></g><g fill="#86f100" fill-opacity="1"><g transform="translate(327.910183, 344.218105)"><g><path d="M 33.0625 -245.53125 C 31.71875 -243.644531 30.375 -241.894531 29.03125 -240.28125 C 27.6875 -238.675781 26.34375 -236.929688 25 -235.046875 C 18.28125 -226.984375 11.5625 -220.398438 4.84375 -215.296875 C -4.300781 -208.304688 -12.234375 -204.8125 -18.953125 -204.8125 C -28.085938 -204.8125 -34.804688 -206.289062 -39.109375 -209.25 C -42.335938 -211.125 -43.953125 -214.210938 -43.953125 -218.515625 C -43.953125 -222.015625 -43.007812 -225.507812 -41.125 -229 C -40.582031 -229.539062 -40.039062 -230.210938 -39.5 -231.015625 C -38.96875 -231.828125 -38.429688 -232.769531 -37.890625 -233.84375 L -79.421875 -206.421875 L -69.75 -194.328125 C -61.414062 -186.804688 -52.679688 -183.046875 -43.546875 -183.046875 C -30.109375 -183.046875 -16.664062 -188.550781 -3.21875 -199.5625 C 5.914062 -206.820312 14.914062 -216.769531 23.78125 -229.40625 C 26.738281 -235.050781 29.832031 -240.425781 33.0625 -245.53125 Z M 33.0625 -245.53125 "/></g></g></g><g fill="#86f100" fill-opacity="1"><g transform="translate(327.910183, 344.218105)"><g><path d="M 137.078125 -23.78125 L 137.078125 -160.0625 L 87.890625 -160.0625 C 83.316406 -160.0625 77 -153.609375 68.9375 -140.703125 C 60.070312 -125.648438 55.640625 -111.140625 55.640625 -97.171875 C 55.640625 -93.128906 55.90625 -89.5625 56.4375 -86.46875 C 56.976562 -83.382812 57.921875 -80.097656 59.265625 -76.609375 C 62.222656 -69.617188 64.304688 -63.4375 65.515625 -58.0625 C 66.722656 -52.6875 67.328125 -47.578125 67.328125 -42.734375 C 67.328125 -36.816406 66.382812 -31.84375 64.5 -27.8125 C 63.96875 -26.46875 63.164062 -24.992188 62.09375 -23.390625 L 48.78125 -37.890625 C 39.644531 -51.066406 34.539062 -63.164062 33.46875 -74.1875 C 32.925781 -77.675781 32.65625 -80.09375 32.65625 -81.4375 C 32.65625 -83.050781 32.65625 -85.601562 32.65625 -89.09375 C 32.65625 -99.582031 34.941406 -109.664062 39.515625 -119.34375 C 44.078125 -128.207031 46.628906 -134.65625 47.171875 -138.6875 C 47.171875 -145.945312 43.675781 -152.800781 36.6875 -159.25 C 35.613281 -160.320312 34.203125 -161.394531 32.453125 -162.46875 C 30.703125 -163.550781 28.753906 -164.765625 26.609375 -166.109375 L 8.875 -139.09375 C 12.90625 -137.75 15.59375 -136.941406 16.9375 -136.671875 C 22.582031 -134.253906 25.738281 -131.5 26.40625 -128.40625 C 27.082031 -125.320312 27.421875 -122.429688 27.421875 -119.734375 C 27.421875 -113.015625 24.328125 -103.472656 18.140625 -91.109375 C 11.960938 -79.285156 8.875 -69.878906 8.875 -62.890625 C 8.875 -51.335938 12.097656 -40.1875 18.546875 -29.4375 C 23.378906 -21.632812 29.425781 -14.375 36.6875 -7.65625 C 42.0625 -2.550781 45.285156 0 46.359375 0 C 47.972656 -1.070312 49.585938 -2.144531 51.203125 -3.21875 C 52.816406 -4.300781 54.5625 -5.515625 56.4375 -6.859375 C 60.207031 -10.078125 63.566406 -13.5 66.515625 -17.125 C 69.472656 -20.757812 72.296875 -24.457031 74.984375 -28.21875 C 81.703125 -38.707031 85.734375 -49.863281 87.078125 -61.6875 L 87.078125 -66.921875 C 87.078125 -72.835938 85.601562 -81.707031 82.65625 -93.53125 C 76.46875 -116.914062 73.375 -128.742188 73.375 -129.015625 C 73.375 -131.429688 74.179688 -132.640625 75.796875 -132.640625 L 107.640625 -132.640625 L 107.640625 0 Z M 137.078125 -23.78125 "/></g></g></g><g fill="#86f100" fill-opacity="1"><g transform="translate(477.082772, 344.218105)"><g><path d="M 115.703125 -160.0625 L 27.8125 -160.0625 L 8.46875 -131.4375 C 11.957031 -130.363281 14.914062 -129.691406 17.34375 -129.421875 C 24.863281 -127.535156 32.519531 -123.769531 40.3125 -118.125 C 50.800781 -110.875 60.34375 -99.988281 68.9375 -85.46875 C 72.707031 -79.289062 75.867188 -72.101562 78.421875 -63.90625 C 80.972656 -55.707031 82.25 -48.382812 82.25 -41.9375 C 82.25 -30.101562 78.082031 -23.25 69.75 -21.375 C 68.40625 -21.101562 66.523438 -20.96875 64.109375 -20.96875 C 57.390625 -20.96875 52.078125 -23.585938 48.171875 -28.828125 C 44.273438 -34.066406 41.925781 -39.78125 41.125 -45.96875 L 20.5625 -20.96875 C 19.488281 -19.894531 22.847656 -15.863281 30.640625 -8.875 C 38.171875 -2.414062 44.753906 0.8125 50.390625 0.8125 C 51.203125 0.8125 52.414062 0.539062 54.03125 0 C 66.394531 -7.789062 75.9375 -16.660156 82.65625 -26.609375 C 87.757812 -34.128906 91.382812 -42.328125 93.53125 -51.203125 C 94.613281 -55.773438 95.15625 -61.421875 95.15625 -68.140625 C 95.15625 -78.078125 92.867188 -88.828125 88.296875 -100.390625 C 85.066406 -107.910156 80.898438 -115.4375 75.796875 -122.96875 C 71.222656 -128.613281 68.9375 -131.4375 68.9375 -131.4375 L 95.15625 -131.4375 Z M 115.703125 -160.0625 "/></g></g></g><g fill="#000000" fill-opacity="1"><g transform="translate(593.208048, 344.218105)"><g><path d="M 117.328125 -22.984375 C 117.585938 -23.253906 116.644531 -25.269531 114.5 -29.03125 C 112.351562 -32.519531 110.335938 -35.203125 108.453125 -37.078125 C 106.566406 -38.960938 103.476562 -40.710938 99.1875 -42.328125 C 97.84375 -42.597656 95.691406 -43.40625 92.734375 -44.75 L 112.078125 -50.796875 L 112.078125 -166.109375 L 82.25 -141.921875 L 82.25 -41.53125 C 82.25 -40.71875 79.828125 -38.160156 74.984375 -33.859375 C 70.691406 -29.566406 67.46875 -27.6875 65.3125 -28.21875 C 59.132812 -28.21875 51.207031 -33.59375 41.53125 -44.34375 C 34.539062 -52.675781 30.375 -62.085938 29.03125 -72.578125 C 28.757812 -73.378906 28.625 -74.722656 28.625 -76.609375 C 28.625 -83.054688 30.773438 -90.710938 35.078125 -99.578125 C 45.023438 -120.546875 50.128906 -133.851562 50.390625 -139.5 L 50.390625 -141.515625 C 50.390625 -148.773438 46.222656 -155.765625 37.890625 -162.484375 L 31.84375 -166.109375 L 12.09375 -143.125 C 14.25 -141.78125 16.128906 -140.4375 17.734375 -139.09375 C 19.347656 -137.75 20.691406 -136.539062 21.765625 -135.46875 C 28.484375 -129.019531 31.84375 -121.894531 31.84375 -114.09375 C 31.84375 -113.820312 31.84375 -113.285156 31.84375 -112.484375 C 31.84375 -111.941406 31.710938 -111.132812 31.453125 -110.0625 C 31.453125 -105.757812 26.34375 -94.472656 16.125 -76.203125 C 11.289062 -68.140625 8.875 -60.476562 8.875 -53.21875 C 8.875 -43.269531 12.5 -33.726562 19.75 -24.59375 C 24.863281 -18.144531 31.71875 -12.097656 40.3125 -6.453125 C 46.5 -2.148438 50.128906 0 51.203125 0 C 50.660156 0 53.078125 -4.03125 58.453125 -12.09375 C 63.566406 -20.96875 68.945312 -25.40625 74.59375 -25.40625 C 79.695312 -25.40625 84.53125 -22.582031 89.09375 -16.9375 C 92.59375 -11.5625 95.414062 -5.914062 97.5625 0 Z M 117.328125 -22.984375 "/></g></g></g><g fill="#000000" fill-opacity="1"><g transform="translate(717.384109, 344.218105)"><g><path d="M 33.0625 -245.53125 C 31.71875 -243.644531 30.375 -241.894531 29.03125 -240.28125 C 27.6875 -238.675781 26.34375 -236.929688 25 -235.046875 C 18.28125 -226.984375 11.5625 -220.398438 4.84375 -215.296875 C -4.300781 -208.304688 -12.234375 -204.8125 -18.953125 -204.8125 C -28.085938 -204.8125 -34.804688 -206.289062 -39.109375 -209.25 C -42.335938 -211.125 -43.953125 -214.210938 -43.953125 -218.515625 C -43.953125 -222.015625 -43.007812 -225.507812 -41.125 -229 C -40.582031 -229.539062 -40.039062 -230.210938 -39.5 -231.015625 C -38.96875 -231.828125 -38.429688 -232.769531 -37.890625 -233.84375 L -79.421875 -206.421875 L -69.75 -194.328125 C -61.414062 -186.804688 -52.679688 -183.046875 -43.546875 -183.046875 C -30.109375 -183.046875 -16.664062 -188.550781 -3.21875 -199.5625 C 5.914062 -206.820312 14.914062 -216.769531 23.78125 -229.40625 C 26.738281 -235.050781 29.832031 -240.425781 33.0625 -245.53125 Z M 33.0625 -245.53125 "/></g></g></g><g fill="#000000" fill-opacity="1"><g transform="translate(717.384109, 344.218105)"><g><path d="M 120.953125 -23.78125 L 120.953125 -160.0625 L 27.8125 -160.0625 L 8.875 -134.25 C 10.21875 -133.71875 11.359375 -133.382812 12.296875 -133.25 C 13.234375 -133.113281 13.972656 -132.910156 14.515625 -132.640625 C 18.546875 -131.296875 21.632812 -129.6875 23.78125 -127.8125 C 26.46875 -125.125 27.8125 -120.957031 27.8125 -115.3125 L 27.8125 0 L 57.65625 -23.78125 L 57.65625 -121.359375 L 48.375 -131.4375 L 91.109375 -131.4375 L 91.109375 0 Z M 120.953125 -23.78125 "/></g></g></g><g fill="#000000" fill-opacity="1"><g transform="translate(850.429936, 344.218105)"><g><path d="M 147.96875 -34.265625 L 147.96875 -166.109375 L 118.53125 -141.921875 L 118.53125 -20.5625 C 117.457031 -20.832031 116.515625 -21.035156 115.703125 -21.171875 C 114.898438 -21.304688 113.960938 -21.503906 112.890625 -21.765625 C 109.128906 -22.847656 106.304688 -24.460938 104.421875 -26.609375 C 103.617188 -27.148438 101.875 -28.765625 99.1875 -31.453125 C 95.6875 -34.671875 93.9375 -36.953125 93.9375 -38.296875 L 93.9375 -166.109375 L 64.5 -141.921875 L 64.5 -24.59375 C 62.894531 -25.664062 61.285156 -26.601562 59.671875 -27.40625 C 58.054688 -28.21875 56.578125 -29.160156 55.234375 -30.234375 C 48.515625 -36.679688 42.867188 -44.207031 38.296875 -52.8125 C 32.390625 -63.832031 29.4375 -74.851562 29.4375 -85.875 L 29.4375 -91.109375 C 29.4375 -97.835938 32.925781 -107.113281 39.90625 -118.9375 C 47.164062 -130.488281 50.796875 -139.757812 50.796875 -146.75 C 50.796875 -151.050781 48.242188 -155.753906 43.140625 -160.859375 C 41.796875 -161.671875 40.382812 -162.476562 38.90625 -163.28125 C 37.425781 -164.09375 36.015625 -165.035156 34.671875 -166.109375 L 13.703125 -139.5 C 17.203125 -138.15625 19.488281 -136.945312 20.5625 -135.875 C 25.132812 -132.644531 27.421875 -128.742188 27.421875 -124.171875 C 27.421875 -122.828125 27.148438 -121.347656 26.609375 -119.734375 C 26.066406 -118.390625 21.628906 -106.296875 13.296875 -83.453125 C 10.347656 -75.117188 8.875 -68.398438 8.875 -63.296875 C 8.875 -53.347656 11.828125 -42.863281 17.734375 -31.84375 C 22.035156 -23.78125 27.679688 -15.988281 34.671875 -8.46875 C 40.316406 -2.28125 43.539062 0.539062 44.34375 0 L 70.15625 -20.96875 C 70.957031 -19.894531 71.691406 -19.019531 72.359375 -18.34375 C 73.035156 -17.675781 73.644531 -17.070312 74.1875 -16.53125 C 77.40625 -13.03125 80.09375 -10.742188 82.25 -9.671875 C 86.28125 -6.984375 91.117188 -4.703125 96.765625 -2.828125 C 102.941406 -0.671875 106.164062 0.269531 106.4375 0 Z M 147.96875 -34.265625 "/></g></g></g><g fill="#000000" fill-opacity="1"><g transform="translate(1010.488128, 344.218105)"><g><path d="M 33.0625 -245.53125 C 31.71875 -243.644531 30.375 -241.894531 29.03125 -240.28125 C 27.6875 -238.675781 26.34375 -236.929688 25 -235.046875 C 18.28125 -226.984375 11.5625 -220.398438 4.84375 -215.296875 C -4.300781 -208.304688 -12.234375 -204.8125 -18.953125 -204.8125 C -28.085938 -204.8125 -34.804688 -206.289062 -39.109375 -209.25 C -42.335938 -211.125 -43.953125 -214.210938 -43.953125 -218.515625 C -43.953125 -222.015625 -43.007812 -225.507812 -41.125 -229 C -40.582031 -229.539062 -40.039062 -230.210938 -39.5 -231.015625 C -38.96875 -231.828125 -38.429688 -232.769531 -37.890625 -233.84375 L -79.421875 -206.421875 L -69.75 -194.328125 C -61.414062 -186.804688 -52.679688 -183.046875 -43.546875 -183.046875 C -30.109375 -183.046875 -16.664062 -188.550781 -3.21875 -199.5625 C 5.914062 -206.820312 14.914062 -216.769531 23.78125 -229.40625 C 26.738281 -235.050781 29.832031 -240.425781 33.0625 -245.53125 Z M 33.0625 -245.53125 "/></g></g></g><g fill="#000000" fill-opacity="1"><g transform="translate(1010.488128, 344.218105)"><g><path d="M 189.09375 -23.78125 L 189.09375 -166.109375 L 159.65625 -141.921875 L 159.65625 -47.578125 C 156.425781 -50.535156 153.335938 -53.625 150.390625 -56.84375 C 146.617188 -60.601562 143.390625 -63.359375 140.703125 -65.109375 C 138.015625 -66.859375 135.328125 -68.539062 132.640625 -70.15625 C 126.734375 -73.644531 123.78125 -75.523438 123.78125 -75.796875 L 123.78125 -136.671875 C 123.78125 -142.585938 122.769531 -147.5625 120.75 -151.59375 C 118.726562 -155.625 113.421875 -159.519531 104.828125 -163.28125 C 103.753906 -163.820312 102.609375 -164.289062 101.390625 -164.6875 C 100.179688 -165.09375 98.773438 -165.566406 97.171875 -166.109375 C 95.828125 -163.953125 94.613281 -162.066406 93.53125 -160.453125 C 92.457031 -158.847656 91.519531 -157.507812 90.71875 -156.4375 C 85.34375 -149.707031 80.367188 -146.613281 75.796875 -147.15625 C 71.492188 -147.15625 67.328125 -150.515625 63.296875 -157.234375 C 60.878906 -160.460938 59.132812 -163.421875 58.0625 -166.109375 C 57.25 -167.453125 52.675781 -164.898438 44.34375 -158.453125 C 39.78125 -154.679688 35.484375 -150.78125 31.453125 -146.75 C 27.421875 -142.71875 23.925781 -138.421875 20.96875 -133.859375 C 12.90625 -122.023438 8.875 -110.195312 8.875 -98.375 C 8.875 -90.84375 11.425781 -83.71875 16.53125 -77 C 21.363281 -70.550781 26.601562 -65.582031 32.25 -62.09375 C 30.632812 -60.207031 29.019531 -58.457031 27.40625 -56.84375 C 25.800781 -55.226562 24.328125 -53.484375 22.984375 -51.609375 C 16.796875 -43.804688 13.703125 -36.414062 13.703125 -29.4375 C 13.703125 -28.09375 13.769531 -26.878906 13.90625 -25.796875 C 14.039062 -24.722656 14.242188 -23.648438 14.515625 -22.578125 C 16.660156 -15.046875 20.691406 -9.132812 26.609375 -4.84375 C 28.492188 -3.226562 31.316406 -1.613281 35.078125 0 L 55.234375 -23.390625 C 50.398438 -25.535156 46.90625 -27.550781 44.75 -29.4375 C 38.03125 -35.34375 34.671875 -44.476562 34.671875 -56.84375 C 34.671875 -60.34375 38.164062 -64.914062 45.15625 -70.5625 C 50.53125 -74.851562 54.757812 -78.34375 57.84375 -81.03125 C 60.9375 -83.71875 63.15625 -85.734375 64.5 -87.078125 C 71.226562 -94.609375 74.59375 -102.675781 74.59375 -111.28125 C 74.59375 -114.5 72.171875 -117.722656 67.328125 -120.953125 C 66.523438 -121.753906 64.238281 -123.097656 60.46875 -124.984375 L 46.359375 -105.234375 C 47.703125 -104.960938 48.78125 -104.421875 49.59375 -103.609375 C 51.738281 -102.535156 53.484375 -101.0625 54.828125 -99.1875 C 55.640625 -97.84375 56.046875 -95.820312 56.046875 -93.125 C 56.046875 -90.707031 55.773438 -88.488281 55.234375 -86.46875 C 54.691406 -84.457031 54.289062 -82.914062 54.03125 -81.84375 C 51.875 -83.988281 49.65625 -86.003906 47.375 -87.890625 C 45.09375 -89.773438 42.875 -91.65625 40.71875 -93.53125 C 31.582031 -102.9375 26.609375 -110.460938 25.796875 -116.109375 C 25.535156 -116.378906 25.40625 -117.1875 25.40625 -118.53125 C 25.40625 -123.632812 27.015625 -130.085938 30.234375 -137.890625 C 30.773438 -139.234375 31.378906 -140.773438 32.046875 -142.515625 C 32.722656 -144.265625 33.597656 -146.21875 34.671875 -148.375 C 36.285156 -146.757812 37.695312 -145.34375 38.90625 -144.125 C 40.113281 -142.914062 41.253906 -141.910156 42.328125 -141.109375 C 48.242188 -136.273438 53.351562 -133.453125 57.65625 -132.640625 C 62.21875 -132.109375 67.457031 -133.859375 73.375 -137.890625 C 74.445312 -138.960938 75.519531 -140.035156 76.59375 -141.109375 C 77.675781 -142.179688 78.890625 -143.253906 80.234375 -144.328125 C 81.304688 -144.066406 83.457031 -142.992188 86.6875 -141.109375 C 91.519531 -138.148438 93.9375 -135.191406 93.9375 -132.234375 L 93.9375 -77 C 92.59375 -76.46875 91.921875 -76.203125 91.921875 -76.203125 C 88.691406 -75.390625 84.796875 -73.773438 80.234375 -71.359375 C 77.003906 -68.941406 74.046875 -65.71875 71.359375 -61.6875 C 70.828125 -61.144531 70.222656 -60.269531 69.546875 -59.0625 C 68.878906 -57.851562 68.140625 -56.578125 67.328125 -55.234375 C 68.941406 -53.890625 70.351562 -52.679688 71.5625 -51.609375 C 72.769531 -50.535156 73.78125 -49.59375 74.59375 -48.78125 C 79.695312 -43.132812 83.1875 -38.703125 85.0625 -35.484375 C 88.832031 -29.296875 91.519531 -20.15625 93.125 -8.0625 C 93.394531 -6.988281 93.53125 -5.78125 93.53125 -4.4375 C 93.53125 -3.09375 93.664062 -1.613281 93.9375 0 L 123.78125 -23.78125 L 123.78125 -52.8125 C 125.65625 -51.195312 127.195312 -49.785156 128.40625 -48.578125 C 129.613281 -47.367188 130.757812 -46.226562 131.84375 -45.15625 C 134.789062 -42.195312 137.335938 -39.570312 139.484375 -37.28125 C 141.640625 -35 143.390625 -32.921875 144.734375 -31.046875 C 148.503906 -26.203125 152.671875 -18.140625 157.234375 -6.859375 C 157.503906 -5.242188 158.3125 -2.957031 159.65625 0 Z M 94.34375 -50 C 93.269531 -51.34375 92.394531 -52.550781 91.71875 -53.625 C 91.050781 -54.695312 90.445312 -55.503906 89.90625 -56.046875 C 86.144531 -60.078125 83.320312 -62.492188 81.4375 -63.296875 L 81.4375 -64.90625 C 82.25 -65.175781 85.34375 -65.3125 90.71875 -65.3125 C 93.132812 -65.3125 94.34375 -65.175781 94.34375 -64.90625 Z M 94.34375 -50 "/></g></g></g><g fill="#000000" fill-opacity="1"><g transform="translate(1211.669512, 344.218105)"><g><path d="M 117.328125 -22.984375 C 117.585938 -23.253906 116.644531 -25.269531 114.5 -29.03125 C 112.351562 -32.519531 110.335938 -35.203125 108.453125 -37.078125 C 106.566406 -38.960938 103.476562 -40.710938 99.1875 -42.328125 C 97.84375 -42.597656 95.691406 -43.40625 92.734375 -44.75 L 112.078125 -50.796875 L 112.078125 -166.109375 L 82.25 -141.921875 L 82.25 -41.53125 C 82.25 -40.71875 79.828125 -38.160156 74.984375 -33.859375 C 70.691406 -29.566406 67.46875 -27.6875 65.3125 -28.21875 C 59.132812 -28.21875 51.207031 -33.59375 41.53125 -44.34375 C 34.539062 -52.675781 30.375 -62.085938 29.03125 -72.578125 C 28.757812 -73.378906 28.625 -74.722656 28.625 -76.609375 C 28.625 -83.054688 30.773438 -90.710938 35.078125 -99.578125 C 45.023438 -120.546875 50.128906 -133.851562 50.390625 -139.5 L 50.390625 -141.515625 C 50.390625 -148.773438 46.222656 -155.765625 37.890625 -162.484375 L 31.84375 -166.109375 L 12.09375 -143.125 C 14.25 -141.78125 16.128906 -140.4375 17.734375 -139.09375 C 19.347656 -137.75 20.691406 -136.539062 21.765625 -135.46875 C 28.484375 -129.019531 31.84375 -121.894531 31.84375 -114.09375 C 31.84375 -113.820312 31.84375 -113.285156 31.84375 -112.484375 C 31.84375 -111.941406 31.710938 -111.132812 31.453125 -110.0625 C 31.453125 -105.757812 26.34375 -94.472656 16.125 -76.203125 C 11.289062 -68.140625 8.875 -60.476562 8.875 -53.21875 C 8.875 -43.269531 12.5 -33.726562 19.75 -24.59375 C 24.863281 -18.144531 31.71875 -12.097656 40.3125 -6.453125 C 46.5 -2.148438 50.128906 0 51.203125 0 C 50.660156 0 53.078125 -4.03125 58.453125 -12.09375 C 63.566406 -20.96875 68.945312 -25.40625 74.59375 -25.40625 C 79.695312 -25.40625 84.53125 -22.582031 89.09375 -16.9375 C 92.59375 -11.5625 95.414062 -5.914062 97.5625 0 Z M 117.328125 -22.984375 "/></g></g></g><g fill="#000000" fill-opacity="1"><g transform="translate(1335.845573, 344.218105)"><g><path d="M 91.109375 -23.78125 L 91.109375 -160.0625 L 30.640625 -160.0625 L 8.875 -131.4375 L 61.6875 -131.4375 L 61.6875 0 Z M 91.109375 -23.78125 "/></g></g></g><g transform="matrix(1, 0, 0, 1, 11, 0)"><g clip-path="url(#9db142549a)"><g fill="#e0080c" fill-opacity="1"><g transform="translate(0.0523164, 158.20921)"><g><path d="M 79.765625 -13.84375 L 79.765625 -93.140625 L 51.140625 -93.140625 C 48.484375 -93.140625 44.804688 -89.382812 40.109375 -81.875 C 34.953125 -73.113281 32.375 -64.664062 32.375 -56.53125 C 32.375 -54.1875 32.53125 -52.113281 32.84375 -50.3125 C 33.15625 -48.519531 33.703125 -46.609375 34.484375 -44.578125 C 36.203125 -40.503906 37.410156 -36.90625 38.109375 -33.78125 C 38.816406 -30.65625 39.171875 -27.679688 39.171875 -24.859375 C 39.171875 -21.421875 38.625 -18.53125 37.53125 -16.1875 C 37.21875 -15.40625 36.75 -14.546875 36.125 -13.609375 L 28.390625 -22.046875 C 23.066406 -29.710938 20.09375 -36.753906 19.46875 -43.171875 C 19.15625 -45.203125 19 -46.609375 19 -47.390625 C 19 -48.328125 19 -49.8125 19 -51.84375 C 19 -57.945312 20.328125 -63.8125 22.984375 -69.4375 C 25.648438 -74.601562 27.140625 -78.359375 27.453125 -80.703125 C 27.453125 -84.921875 25.414062 -88.910156 21.34375 -92.671875 C 20.71875 -93.296875 19.894531 -93.921875 18.875 -94.546875 C 17.863281 -95.171875 16.734375 -95.875 15.484375 -96.65625 L 5.15625 -80.9375 C 7.507812 -80.15625 9.078125 -79.6875 9.859375 -79.53125 C 13.140625 -78.125 14.972656 -76.519531 15.359375 -74.71875 C 15.753906 -72.914062 15.953125 -71.234375 15.953125 -69.671875 C 15.953125 -65.765625 14.15625 -60.210938 10.5625 -53.015625 C 6.957031 -46.140625 5.15625 -40.664062 5.15625 -36.59375 C 5.15625 -29.875 7.035156 -23.382812 10.796875 -17.125 C 13.609375 -12.59375 17.125 -8.367188 21.34375 -4.453125 C 24.476562 -1.484375 26.359375 0 26.984375 0 C 27.921875 -0.625 28.859375 -1.25 29.796875 -1.875 C 30.734375 -2.5 31.75 -3.203125 32.84375 -3.984375 C 35.03125 -5.859375 36.984375 -7.851562 38.703125 -9.96875 C 40.421875 -12.082031 42.066406 -14.234375 43.640625 -16.421875 C 47.546875 -22.523438 49.890625 -29.015625 50.671875 -35.890625 L 50.671875 -38.9375 C 50.671875 -42.382812 49.8125 -47.546875 48.09375 -54.421875 C 44.5 -68.023438 42.703125 -74.90625 42.703125 -75.0625 C 42.703125 -76.476562 43.171875 -77.1875 44.109375 -77.1875 L 62.640625 -77.1875 L 62.640625 0 Z M 79.765625 -13.84375 "/></g></g></g><g fill="#e0080c" fill-opacity="1"><g transform="translate(86.847851, 158.20921)"><g><path d="M -7.03125 -110.265625 L -7.03125 -141.453125 L -22.046875 -130.90625 L -22.046875 -120.34375 C -22.046875 -120.5 -24.628906 -121.4375 -29.796875 -123.15625 C -35.890625 -125.195312 -40.816406 -126.21875 -44.578125 -126.21875 C -48.484375 -126.21875 -53.09375 -124.726562 -58.40625 -121.75 C -62.007812 -119.40625 -65.765625 -116.59375 -69.671875 -113.3125 C -70.453125 -112.53125 -71.234375 -111.785156 -72.015625 -111.078125 C -72.796875 -110.378906 -73.578125 -109.632812 -74.359375 -108.84375 C -73.265625 -108.0625 -72.25 -107.359375 -71.3125 -106.734375 C -70.375 -106.109375 -69.4375 -105.40625 -68.5 -104.625 C -64.28125 -102.125 -60.367188 -101.03125 -56.765625 -101.34375 C -53.953125 -101.34375 -50.59375 -102.90625 -46.6875 -106.03125 C -45.4375 -106.96875 -43.875 -108.535156 -42 -110.734375 C -42.78125 -110.265625 -43.441406 -109.875 -43.984375 -109.5625 C -44.535156 -109.25 -44.96875 -108.929688 -45.28125 -108.609375 C -47.78125 -107.359375 -49.65625 -106.734375 -50.90625 -106.734375 C -54.34375 -106.734375 -57.941406 -109.003906 -61.703125 -113.546875 C -62.015625 -114.171875 -62.25 -114.71875 -62.40625 -115.1875 C -62.5625 -115.65625 -62.796875 -116.203125 -63.109375 -116.828125 L -61.703125 -117.53125 C -59.347656 -118.46875 -56.6875 -118.9375 -53.71875 -118.9375 C -52.46875 -118.9375 -50.117188 -118.582031 -46.671875 -117.875 C -43.234375 -117.175781 -39.015625 -115.34375 -34.015625 -112.375 C -31.671875 -110.96875 -29.519531 -109.675781 -27.5625 -108.5 C -25.601562 -107.320312 -23.765625 -106.1875 -22.046875 -105.09375 C -21.421875 -104.78125 -20.796875 -104.390625 -20.171875 -103.921875 C -19.546875 -103.453125 -18.84375 -102.90625 -18.0625 -102.28125 Z M -7.03125 -110.265625 "/></g></g></g><g fill="#e0080c" fill-opacity="1"><g transform="translate(86.847851, 158.20921)"><g><path d="M 79.765625 -13.84375 L 79.765625 -96.65625 L 62.640625 -82.578125 L 62.640625 -27.6875 C 60.765625 -29.25 59.4375 -30.34375 58.65625 -30.96875 C 57.238281 -32.21875 55.984375 -33.269531 54.890625 -34.125 C 53.796875 -34.988281 52.78125 -35.769531 51.84375 -36.46875 C 50.90625 -37.175781 49.925781 -37.800781 48.90625 -38.34375 C 47.894531 -38.894531 46.6875 -39.5625 45.28125 -40.34375 C 40.425781 -42.695312 38 -43.953125 38 -44.109375 L 38 -77.1875 C 38 -79.6875 37.800781 -81.875 37.40625 -83.75 C 37.019531 -85.625 36.203125 -87.5 34.953125 -89.375 C 33.234375 -91.414062 30.421875 -93.296875 26.515625 -95.015625 C 25.734375 -95.328125 24.867188 -95.597656 23.921875 -95.828125 C 22.984375 -96.066406 21.890625 -96.34375 20.640625 -96.65625 L 11.734375 -83.75 C 12.515625 -83.59375 13.609375 -83.4375 15.015625 -83.28125 C 16.421875 -83.125 17.75 -82.421875 19 -81.171875 C 20.09375 -80.078125 20.640625 -78.671875 20.640625 -76.953125 L 20.640625 -44.8125 C 19.859375 -44.5 19.390625 -44.265625 19.234375 -44.109375 C 16.890625 -43.171875 14.625 -41.835938 12.4375 -40.109375 C 11.03125 -39.171875 9.382812 -37.53125 7.5 -35.1875 C 6.875 -34.5625 6.09375 -33.546875 5.15625 -32.140625 C 5.9375 -31.359375 6.640625 -30.613281 7.265625 -29.90625 C 7.890625 -29.207031 8.441406 -28.546875 8.921875 -27.921875 C 10.171875 -26.359375 11.222656 -24.945312 12.078125 -23.6875 C 12.941406 -22.4375 13.6875 -21.265625 14.3125 -20.171875 C 16.03125 -16.890625 17.75 -11.726562 19.46875 -4.6875 C 19.625 -4.0625 19.78125 -3.359375 19.9375 -2.578125 C 20.09375 -1.796875 20.328125 -0.9375 20.640625 0 L 38 -13.84375 L 38 -30.734375 C 39.40625 -29.953125 40.617188 -29.25 41.640625 -28.625 C 42.660156 -28 43.5625 -27.375 44.34375 -26.75 C 48.71875 -23.769531 51.921875 -20.875 53.953125 -18.0625 C 55.515625 -15.875 57.039062 -13.097656 58.53125 -9.734375 C 60.019531 -6.367188 61.390625 -3.125 62.640625 0 Z M 20.875 -29.09375 C 20.25 -29.875 19.738281 -30.578125 19.34375 -31.203125 C 18.957031 -31.828125 18.609375 -32.296875 18.296875 -32.609375 C 16.109375 -35.109375 14.546875 -36.515625 13.609375 -36.828125 L 13.609375 -37.765625 C 14.234375 -37.921875 14.9375 -38.035156 15.71875 -38.109375 C 16.5 -38.191406 17.515625 -38.234375 18.765625 -38.234375 C 20.171875 -38.234375 20.875 -38.078125 20.875 -37.765625 Z M 20.875 -29.09375 "/></g></g></g></g></g></g></g></g><g clip-path="url(#81e8c97f09)"><g transform="matrix(1, 0, 0, 1, 600, 354)"><g clip-path="url(#2b3c2f5fb3)"><g clip-path="url(#93c6d8d485)"><path fill="#ffb000" d="M 0.0703125 0.78125 L 827.425781 0.78125 L 827.425781 12.773438 L 0.0703125 12.773438 Z M 0.0703125 0.78125 " fill-opacity="1" fill-rule="nonzero"/></g></g></g></g></svg>